<?xml version="1.0" encoding="UTF-8" standalone="no"?>
<!-- Generator: Adobe Illustrator 27.6.1, SVG Export Plug-In . SVG Version: 6.00 Build 0)  -->

<svg
   sodipodi:docname="icon_config.svg"
   xml:space="preserve"
   style="enable-background:new 0 0 800 800;"
   viewBox="0 0 800 800"
   y="0px"
   x="0px"
   id="Layer_1"
   version="1.1"
   inkscape:version="1.2.2 (b0a84865, 2022-12-01)"
   xmlns:inkscape="http://www.inkscape.org/namespaces/inkscape"
   xmlns:sodipodi="http://sodipodi.sourceforge.net/DTD/sodipodi-0.dtd"
   xmlns="http://www.w3.org/2000/svg"
   xmlns:svg="http://www.w3.org/2000/svg"><defs
   id="defs62"><linearGradient
     id="linearGradient2897"
     inkscape:swatch="solid"><stop
       style="stop-color:#0fd054;stop-opacity:1;"
       offset="0"
       id="stop2895" /></linearGradient><linearGradient
     id="linearGradient3241"
     inkscape:swatch="solid"><stop
       style="stop-color:#000000;stop-opacity:1;"
       offset="0"
       id="stop3239" /></linearGradient><linearGradient
     id="linearGradient2470"
     inkscape:swatch="solid"><stop
       style="stop-color:#55c61d;stop-opacity:1;"
       offset="0"
       id="stop2468" /></linearGradient><filter
     style="color-interpolation-filters:sRGB;"
     inkscape:label="Colorize"
     id="filter598"
     x="0"
     y="0"
     width="1"
     height="1"><feComposite
       in2="SourceGraphic"
       operator="arithmetic"
       k1="2.33645"
       k2="1"
       result="composite1"
       id="feComposite584" /><feColorMatrix
       in="composite1"
       values="1"
       type="saturate"
       result="colormatrix1"
       id="feColorMatrix586" /><feFlood
       flood-opacity="1"
       flood-color="rgb(158,67,0)"
       result="flood1"
       id="feFlood588" /><feBlend
       in="flood1"
       in2="colormatrix1"
       mode="multiply"
       result="blend1"
       id="feBlend590" /><feBlend
       in2="blend1"
       mode="screen"
       result="blend2"
       id="feBlend592" /><feColorMatrix
       in="blend2"
       values="1"
       type="saturate"
       result="colormatrix2"
       id="feColorMatrix594" /><feComposite
       in="colormatrix2"
       in2="SourceGraphic"
       operator="in"
       k2="1"
       result="fbSourceGraphic"
       id="feComposite596" /><feColorMatrix
       result="fbSourceGraphicAlpha"
       in="fbSourceGraphic"
       values="0 0 0 -1 0 0 0 0 -1 0 0 0 0 -1 0 0 0 0 1 0"
       id="feColorMatrix600" /><feComposite
       in2="fbSourceGraphic"
       id="feComposite602"
       operator="arithmetic"
       k1="2.33645"
       k2="1"
       result="composite1"
       in="fbSourceGraphic" /><feColorMatrix
       id="feColorMatrix604"
       in="composite1"
       values="1"
       type="saturate"
       result="colormatrix1" /><feFlood
       id="feFlood606"
       flood-opacity="1"
       flood-color="rgb(113,45,93)"
       result="flood1" /><feBlend
       in2="colormatrix1"
       id="feBlend608"
       in="flood1"
       mode="multiply"
       result="blend1" /><feBlend
       in2="blend1"
       id="feBlend610"
       mode="screen"
       result="blend2" /><feColorMatrix
       id="feColorMatrix612"
       in="blend2"
       values="1"
       type="saturate"
       result="colormatrix2" /><feComposite
       in2="fbSourceGraphic"
       id="feComposite614"
       in="colormatrix2"
       operator="in"
       k2="1"
       result="composite2" /></filter></defs><sodipodi:namedview
   id="namedview60"
   pagecolor="#505050"
   bordercolor="#ffffff"
   borderopacity="1"
   inkscape:showpageshadow="0"
   inkscape:pageopacity="0"
   inkscape:pagecheckerboard="1"
   inkscape:deskcolor="#505050"
   showgrid="false"
   inkscape:zoom="0.90774833"
   inkscape:cx="-470.3947"
   inkscape:cy="219.77457"
   inkscape:window-width="3008"
   inkscape:window-height="1639"
   inkscape:window-x="2056"
   inkscape:window-y="62"
   inkscape:window-maximized="1"
   inkscape:current-layer="layer2" />
<style
   type="text/css"
   id="style49">
	.st0{fill:#FF5559;}
	.st1{fill:none;stroke:#FFFFFF;stroke-width:66.667;stroke-linecap:round;stroke-linejoin:round;stroke-miterlimit:133.3333;}
</style>

<g
   id="g57">
	
	
</g>
<g
   inkscape:groupmode="layer"
   id="layer1"
   inkscape:label="Layer 1"
   style="display:inline"><rect
     style="opacity:1;fill:#00b9ff;fill-opacity:1;fill-rule:nonzero;stroke:none;stroke-width:38.095;stroke-dasharray:none;stroke-opacity:1"
     id="rect7425"
     width="0"
     height="87.028542"
     x="691.82172"
     y="157.53265"
     ry="2.7540674" /><rect
     style="opacity:1;fill:#255857;fill-opacity:1;fill-rule:nonzero;stroke:none;stroke-width:0;stroke-dasharray:none;stroke-opacity:1;paint-order:stroke fill markers"
     id="rect7423"
     width="761"
     height="761"
     x="19.5"
     y="19.5"
     ry="159.7359"
     inkscape:transform-center-x="14.32115"
     inkscape:transform-center-y="-4.4065077" /></g><g
   inkscape:groupmode="layer"
   id="layer2"
   inkscape:label="Layer 2"
   style="display:inline"><g
     style="fill:#255857;stroke:#ffffff;stroke-opacity:1;fill-opacity:1"
     id="g292"
     transform="matrix(33.333333,0,0,33.333333,4e-6,5.2167858e-4)"><g
       style="fill:#255857;stroke:#ffffff;stroke-opacity:1;fill-opacity:1"
       id="g5389"><g
         style="fill:#255857;stroke:#ffffff;stroke-opacity:1;fill-opacity:1"
         id="g5966"
         transform="translate(0.00894,-1.5530358e-5)"><path
           d="m 18.763,13.7944 1.266,2.2278 c -0.1504,0.2941 -0.3185,0.5829 -0.5046,0.8651 -0.1861,0.2822 -0.3853,0.5505 -0.5963,0.8046 l -2.4904,-0.2777 c -0.6662,0.5466 -1.435,0.9727 -2.2732,1.245 l -1.1643,2.2858 c -0.3283,0.0363 -0.662,0.055 -1,0.055 -0.338,0 -0.6717,-0.0187 -1,-0.055 L 9.83293,18.6582 C 8.99428,18.3854 8.22514,17.9585 7.5589,17.4111 L 5.05407,17.6915 C 4.84303,17.4374 4.64381,17.1691 4.45774,16.8869 4.27168,16.6047 4.10356,16.3159 3.95312,16.0218 L 5.22637,13.7814 C 5.07803,13.2142 5.00021,12.6139 5.00021,12.0002 c 0,-0.6253 0.08198,-1.2314 0.23578,-1.8082 L 3.95351,7.936 C 4.10394,7.64191 4.27206,7.3531 4.45812,7.07091 4.64419,6.78873 4.84341,6.52043 5.05445,6.2663 L 7.60942,6.55327 C 8.26776,6.02075 9.01625,5.60683 9.84,5.33984 M 9.83614,5.33996 11,3.05493 C 11.3283,3.01863 11.662,3 12,3 c 0.338,0 0.6716,0.01863 1,0.05493 l 1.1638,2.28503 c 0.8244,0.2672 1.5751,0.67768 2.2338,1.21081 l 2.5299,-0.28416 c 0.211,0.25413 0.4102,0.52243 0.5963,0.80462 0.186,0.28218 0.3542,0.571 0.5046,0.86509 l -1.2692,2.23338 m 2e-4,0.0035 c 0.157,0.5824 0.2408,1.1949 0.2408,1.827 0,0.6213 -0.0809,1.2237 -0.2329,1.7972 m -3.7671,-1.7972 c 0,1.6568 -1.3431,3 -3,3 -1.6569,0 -3,-1.3432 -3,-3 0,-1.6569 1.3431,-3.00005 3,-3.00005 1.6569,0 3,1.34315 3,3.00005 z"
           stroke="#000000"
           stroke-width="2"
           stroke-linecap="round"
           stroke-linejoin="round"
           id="path5957"
           style="stroke:#ffffff;stroke-opacity:1;fill:#255857;fill-opacity:1" /></g></g></g></g></svg>
